solid planterCover
   facet normal -9.986295e-01 -5.233593e-02 0.000000e+00
      outer loop
         vertex 8.224078e+00 0.000000e+00 8.224078e+00
         vertex 8.224078e+00 0.000000e+00 7.477592e+01
         vertex 7.700000e+00 1.000000e+01 7.700000e+00
      endloop
   endfacet
   facet normal -9.986295e-01 -5.233593e-02 0.000000e+00
      outer loop
         vertex 7.700000e+00 1.000000e+01 7.700000e+00
         vertex 8.224078e+00 0.000000e+00 7.477592e+01
         vertex 7.700000e+00 1.000000e+01 7.530000e+01
      endloop
   endfacet
   facet normal -0.000000e+00 -5.233593e-02 -9.986295e-01
      outer loop
         vertex 7.477592e+01 0.000000e+00 8.224078e+00
         vertex 8.224078e+00 0.000000e+00 8.224078e+00
         vertex 7.530000e+01 1.000000e+01 7.700000e+00
      endloop
   endfacet
   facet normal -3.727639e-35 -5.233593e-02 -9.986295e-01
      outer loop
         vertex 7.530000e+01 1.000000e+01 7.700000e+00
         vertex 8.224078e+00 0.000000e+00 8.224078e+00
         vertex 7.700000e+00 1.000000e+01 7.700000e+00
      endloop
   endfacet
   facet normal 9.986295e-01 -5.233593e-02 0.000000e+00
      outer loop
         vertex 7.477592e+01 0.000000e+00 7.477592e+01
         vertex 7.477592e+01 0.000000e+00 8.224078e+00
         vertex 7.530000e+01 1.000000e+01 7.530000e+01
      endloop
   endfacet
   facet normal 9.986295e-01 -5.233593e-02 -7.455277e-35
      outer loop
         vertex 7.530000e+01 1.000000e+01 7.530000e+01
         vertex 7.477592e+01 0.000000e+00 8.224078e+00
         vertex 7.530000e+01 1.000000e+01 7.700000e+00
      endloop
   endfacet
   facet normal 0.000000e+00 -5.233593e-02 9.986295e-01
      outer loop
         vertex 8.224078e+00 0.000000e+00 7.477592e+01
         vertex 7.477592e+01 0.000000e+00 7.477592e+01
         vertex 7.700000e+00 1.000000e+01 7.530000e+01
      endloop
   endfacet
   facet normal 0.000000e+00 -5.233593e-02 9.986295e-01
      outer loop
         vertex 7.700000e+00 1.000000e+01 7.530000e+01
         vertex 7.477592e+01 0.000000e+00 7.477592e+01
         vertex 7.530000e+01 1.000000e+01 7.530000e+01
      endloop
   endfacet
   facet normal 0.000000e+00 -1.000000e+00 0.000000e+00
      outer loop
         vertex 7.282408e+01 0.000000e+00 7.282408e+01
         vertex 7.477592e+01 0.000000e+00 7.477592e+01
         vertex 1.017592e+01 0.000000e+00 7.282408e+01
      endloop
   endfacet
   facet normal 0.000000e+00 -1.000000e+00 0.000000e+00
      outer loop
         vertex 1.017592e+01 0.000000e+00 7.282408e+01
         vertex 7.477592e+01 0.000000e+00 7.477592e+01
         vertex 8.224078e+00 0.000000e+00 7.477592e+01
      endloop
   endfacet
   facet normal -0.000000e+00 -1.000000e+00 -0.000000e+00
      outer loop
         vertex 1.017592e+01 0.000000e+00 7.282408e+01
         vertex 8.224078e+00 0.000000e+00 7.477592e+01
         vertex 1.017592e+01 0.000000e+00 1.017592e+01
      endloop
   endfacet
   facet normal -0.000000e+00 -1.000000e+00 0.000000e+00
      outer loop
         vertex 1.017592e+01 0.000000e+00 1.017592e+01
         vertex 8.224078e+00 0.000000e+00 7.477592e+01
         vertex 8.224078e+00 0.000000e+00 8.224078e+00
      endloop
   endfacet
   facet normal 0.000000e+00 -1.000000e+00 -0.000000e+00
      outer loop
         vertex 1.017592e+01 0.000000e+00 1.017592e+01
         vertex 8.224078e+00 0.000000e+00 8.224078e+00
         vertex 7.282408e+01 0.000000e+00 1.017592e+01
      endloop
   endfacet
   facet normal 0.000000e+00 -1.000000e+00 -0.000000e+00
      outer loop
         vertex 7.282408e+01 0.000000e+00 1.017592e+01
         vertex 8.224078e+00 0.000000e+00 8.224078e+00
         vertex 7.477592e+01 0.000000e+00 8.224078e+00
      endloop
   endfacet
   facet normal 0.000000e+00 -1.000000e+00 0.000000e+00
      outer loop
         vertex 7.282408e+01 0.000000e+00 1.017592e+01
         vertex 7.477592e+01 0.000000e+00 8.224078e+00
         vertex 7.282408e+01 0.000000e+00 7.282408e+01
      endloop
   endfacet
   facet normal 0.000000e+00 -1.000000e+00 0.000000e+00
      outer loop
         vertex 7.282408e+01 0.000000e+00 7.282408e+01
         vertex 7.477592e+01 0.000000e+00 8.224078e+00
         vertex 7.477592e+01 0.000000e+00 7.477592e+01
      endloop
   endfacet
   facet normal 9.986295e-01 -5.233585e-02 0.000000e+00
      outer loop
         vertex 1.058939e+01 7.889387e+00 7.241061e+01
         vertex 1.017592e+01 0.000000e+00 7.282408e+01
         vertex 1.058939e+01 7.889387e+00 1.058939e+01
      endloop
   endfacet
   facet normal 9.986295e-01 -5.233585e-02 0.000000e+00
      outer loop
         vertex 1.058939e+01 7.889387e+00 1.058939e+01
         vertex 1.017592e+01 0.000000e+00 7.282408e+01
         vertex 1.017592e+01 0.000000e+00 1.017592e+01
      endloop
   endfacet
   facet normal 0.000000e+00 -5.233585e-02 9.986295e-01
      outer loop
         vertex 1.058939e+01 7.889387e+00 1.058939e+01
         vertex 1.017592e+01 0.000000e+00 1.017592e+01
         vertex 7.241061e+01 7.889387e+00 1.058939e+01
      endloop
   endfacet
   facet normal 0.000000e+00 -5.233585e-02 9.986295e-01
      outer loop
         vertex 7.241061e+01 7.889387e+00 1.058939e+01
         vertex 1.017592e+01 0.000000e+00 1.017592e+01
         vertex 7.282408e+01 0.000000e+00 1.017592e+01
      endloop
   endfacet
   facet normal -9.986295e-01 -5.233585e-02 0.000000e+00
      outer loop
         vertex 7.241061e+01 7.889387e+00 1.058939e+01
         vertex 7.282408e+01 0.000000e+00 1.017592e+01
         vertex 7.241061e+01 7.889387e+00 7.241061e+01
      endloop
   endfacet
   facet normal -9.986295e-01 -5.233585e-02 0.000000e+00
      outer loop
         vertex 7.241061e+01 7.889387e+00 7.241061e+01
         vertex 7.282408e+01 0.000000e+00 1.017592e+01
         vertex 7.282408e+01 0.000000e+00 7.282408e+01
      endloop
   endfacet
   facet normal -0.000000e+00 -5.233585e-02 -9.986295e-01
      outer loop
         vertex 7.241061e+01 7.889387e+00 7.241061e+01
         vertex 7.282408e+01 0.000000e+00 7.282408e+01
         vertex 1.058939e+01 7.889387e+00 7.241061e+01
      endloop
   endfacet
   facet normal 0.000000e+00 -5.233585e-02 -9.986295e-01
      outer loop
         vertex 1.058939e+01 7.889387e+00 7.241061e+01
         vertex 7.282408e+01 0.000000e+00 7.282408e+01
         vertex 1.017592e+01 0.000000e+00 7.282408e+01
      endloop
   endfacet
   facet normal 0.000000e+00 -1.000000e+00 0.000000e+00
      outer loop
         vertex 7.530000e+01 1.000000e+01 7.700000e+00
         vertex 8.300000e+01 1.000000e+01 0.000000e+00
         vertex 7.530000e+01 1.000000e+01 7.530000e+01
      endloop
   endfacet
   facet normal 0.000000e+00 -1.000000e+00 0.000000e+00
      outer loop
         vertex 7.530000e+01 1.000000e+01 7.530000e+01
         vertex 8.300000e+01 1.000000e+01 0.000000e+00
         vertex 8.300000e+01 1.000000e+01 8.300000e+01
      endloop
   endfacet
   facet normal 0.000000e+00 -1.000000e+00 0.000000e+00
      outer loop
         vertex 7.530000e+01 1.000000e+01 7.530000e+01
         vertex 8.300000e+01 1.000000e+01 8.300000e+01
         vertex 7.700000e+00 1.000000e+01 7.530000e+01
      endloop
   endfacet
   facet normal 0.000000e+00 -1.000000e+00 0.000000e+00
      outer loop
         vertex 7.700000e+00 1.000000e+01 7.530000e+01
         vertex 8.300000e+01 1.000000e+01 8.300000e+01
         vertex 0.000000e+00 1.000000e+01 8.300000e+01
      endloop
   endfacet
   facet normal -0.000000e+00 -1.000000e+00 -0.000000e+00
      outer loop
         vertex 7.700000e+00 1.000000e+01 7.530000e+01
         vertex 0.000000e+00 1.000000e+01 8.300000e+01
         vertex 7.700000e+00 1.000000e+01 7.700000e+00
      endloop
   endfacet
   facet normal -0.000000e+00 -1.000000e+00 0.000000e+00
      outer loop
         vertex 7.700000e+00 1.000000e+01 7.700000e+00
         vertex 0.000000e+00 1.000000e+01 8.300000e+01
         vertex 0.000000e+00 1.000000e+01 0.000000e+00
      endloop
   endfacet
   facet normal 0.000000e+00 -1.000000e+00 -0.000000e+00
      outer loop
         vertex 7.700000e+00 1.000000e+01 7.700000e+00
         vertex 0.000000e+00 1.000000e+01 0.000000e+00
         vertex 7.530000e+01 1.000000e+01 7.700000e+00
      endloop
   endfacet
   facet normal 0.000000e+00 -1.000000e+00 -0.000000e+00
      outer loop
         vertex 7.530000e+01 1.000000e+01 7.700000e+00
         vertex 0.000000e+00 1.000000e+01 0.000000e+00
         vertex 8.300000e+01 1.000000e+01 0.000000e+00
      endloop
   endfacet
   facet normal 0.000000e+00 1.000000e+00 0.000000e+00
      outer loop
         vertex 8.150000e+01 1.300000e+01 8.150000e+01
         vertex 8.150000e+01 1.300000e+01 1.499999e+00
         vertex 1.499999e+00 1.300000e+01 8.150000e+01
      endloop
   endfacet
   facet normal 0.000000e+00 1.000000e+00 0.000000e+00
      outer loop
         vertex 1.499999e+00 1.300000e+01 8.150000e+01
         vertex 8.150000e+01 1.300000e+01 1.499999e+00
         vertex 1.499999e+00 1.300000e+01 1.499999e+00
      endloop
   endfacet
   facet normal -0.000000e+00 0.000000e+00 1.000000e+00
      outer loop
         vertex 0.000000e+00 1.150000e+01 8.300000e+01
         vertex 0.000000e+00 1.000000e+01 8.300000e+01
         vertex 8.300000e+01 1.150000e+01 8.300000e+01
      endloop
   endfacet
   facet normal 0.000000e+00 0.000000e+00 1.000000e+00
      outer loop
         vertex 8.300000e+01 1.150000e+01 8.300000e+01
         vertex 0.000000e+00 1.000000e+01 8.300000e+01
         vertex 8.300000e+01 1.000000e+01 8.300000e+01
      endloop
   endfacet
   facet normal -1.000000e+00 0.000000e+00 0.000000e+00
      outer loop
         vertex 0.000000e+00 1.150000e+01 0.000000e+00
         vertex 0.000000e+00 1.000000e+01 0.000000e+00
         vertex 0.000000e+00 1.150000e+01 8.300000e+01
      endloop
   endfacet
   facet normal -1.000000e+00 -0.000000e+00 0.000000e+00
      outer loop
         vertex 0.000000e+00 1.150000e+01 8.300000e+01
         vertex 0.000000e+00 1.000000e+01 0.000000e+00
         vertex 0.000000e+00 1.000000e+01 8.300000e+01
      endloop
   endfacet
   facet normal -0.000000e+00 -0.000000e+00 -1.000000e+00
      outer loop
         vertex 8.300000e+01 1.150000e+01 0.000000e+00
         vertex 8.300000e+01 1.000000e+01 0.000000e+00
         vertex 0.000000e+00 1.150000e+01 0.000000e+00
      endloop
   endfacet
   facet normal 0.000000e+00 0.000000e+00 -1.000000e+00
      outer loop
         vertex 0.000000e+00 1.150000e+01 0.000000e+00
         vertex 8.300000e+01 1.000000e+01 0.000000e+00
         vertex 0.000000e+00 1.000000e+01 0.000000e+00
      endloop
   endfacet
   facet normal 1.000000e+00 0.000000e+00 0.000000e+00
      outer loop
         vertex 8.300000e+01 1.150000e+01 8.300000e+01
         vertex 8.300000e+01 1.000000e+01 8.300000e+01
         vertex 8.300000e+01 1.150000e+01 0.000000e+00
      endloop
   endfacet
   facet normal 1.000000e+00 0.000000e+00 0.000000e+00
      outer loop
         vertex 8.300000e+01 1.150000e+01 0.000000e+00
         vertex 8.300000e+01 1.000000e+01 8.300000e+01
         vertex 8.300000e+01 1.000000e+01 0.000000e+00
      endloop
   endfacet
   facet normal -0.000000e+00 -1.000000e+00 -0.000000e+00
      outer loop
         vertex 7.030000e+01 1.000000e+01 7.030000e+01
         vertex 1.270000e+01 1.000000e+01 7.030000e+01
         vertex 7.030000e+01 1.000000e+01 1.270000e+01
      endloop
   endfacet
   facet normal 0.000000e+00 -1.000000e+00 0.000000e+00
      outer loop
         vertex 7.030000e+01 1.000000e+01 1.270000e+01
         vertex 1.270000e+01 1.000000e+01 7.030000e+01
         vertex 1.270000e+01 1.000000e+01 1.270000e+01
      endloop
   endfacet
   facet normal 0.000000e+00 7.071066e-01 -7.071069e-01
      outer loop
         vertex 0.000000e+00 1.150000e+01 0.000000e+00
         vertex 1.499999e+00 1.300000e+01 1.499999e+00
         vertex 8.300000e+01 1.150000e+01 0.000000e+00
      endloop
   endfacet
   facet normal 0.000000e+00 7.071066e-01 -7.071069e-01
      outer loop
         vertex 8.300000e+01 1.150000e+01 0.000000e+00
         vertex 1.499999e+00 1.300000e+01 1.499999e+00
         vertex 8.150000e+01 1.300000e+01 1.499999e+00
      endloop
   endfacet
   facet normal -7.071069e-01 7.071066e-01 0.000000e+00
      outer loop
         vertex 0.000000e+00 1.150000e+01 8.300000e+01
         vertex 1.499999e+00 1.300000e+01 8.150000e+01
         vertex 0.000000e+00 1.150000e+01 0.000000e+00
      endloop
   endfacet
   facet normal -7.071069e-01 7.071066e-01 0.000000e+00
      outer loop
         vertex 0.000000e+00 1.150000e+01 0.000000e+00
         vertex 1.499999e+00 1.300000e+01 8.150000e+01
         vertex 1.499999e+00 1.300000e+01 1.499999e+00
      endloop
   endfacet
   facet normal 7.071069e-01 7.071066e-01 0.000000e+00
      outer loop
         vertex 8.150000e+01 1.300000e+01 8.150000e+01
         vertex 8.300000e+01 1.150000e+01 8.300000e+01
         vertex 8.150000e+01 1.300000e+01 1.499999e+00
      endloop
   endfacet
   facet normal 7.071069e-01 7.071066e-01 0.000000e+00
      outer loop
         vertex 8.150000e+01 1.300000e+01 1.499999e+00
         vertex 8.300000e+01 1.150000e+01 8.300000e+01
         vertex 8.300000e+01 1.150000e+01 0.000000e+00
      endloop
   endfacet
   facet normal 0.000000e+00 7.071066e-01 7.071069e-01
      outer loop
         vertex 8.300000e+01 1.150000e+01 8.300000e+01
         vertex 8.150000e+01 1.300000e+01 8.150000e+01
         vertex 0.000000e+00 1.150000e+01 8.300000e+01
      endloop
   endfacet
   facet normal 0.000000e+00 7.071066e-01 7.071069e-01
      outer loop
         vertex 0.000000e+00 1.150000e+01 8.300000e+01
         vertex 8.150000e+01 1.300000e+01 8.150000e+01
         vertex 1.499999e+00 1.300000e+01 8.150000e+01
      endloop
   endfacet
   facet normal 7.071066e-01 -7.071069e-01 0.000000e+00
      outer loop
         vertex 1.270000e+01 1.000000e+01 7.030000e+01
         vertex 1.058939e+01 7.889387e+00 7.241061e+01
         vertex 1.270000e+01 1.000000e+01 1.270000e+01
      endloop
   endfacet
   facet normal 7.071066e-01 -7.071069e-01 0.000000e+00
      outer loop
         vertex 1.270000e+01 1.000000e+01 1.270000e+01
         vertex 1.058939e+01 7.889387e+00 7.241061e+01
         vertex 1.058939e+01 7.889387e+00 1.058939e+01
      endloop
   endfacet
   facet normal -0.000000e+00 -7.071069e-01 -7.071066e-01
      outer loop
         vertex 7.030000e+01 1.000000e+01 7.030000e+01
         vertex 7.241061e+01 7.889387e+00 7.241061e+01
         vertex 1.270000e+01 1.000000e+01 7.030000e+01
      endloop
   endfacet
   facet normal 0.000000e+00 -7.071069e-01 -7.071066e-01
      outer loop
         vertex 1.270000e+01 1.000000e+01 7.030000e+01
         vertex 7.241061e+01 7.889387e+00 7.241061e+01
         vertex 1.058939e+01 7.889387e+00 7.241061e+01
      endloop
   endfacet
   facet normal 0.000000e+00 -7.071069e-01 7.071066e-01
      outer loop
         vertex 7.241061e+01 7.889387e+00 1.058939e+01
         vertex 7.030000e+01 1.000000e+01 1.270000e+01
         vertex 1.058939e+01 7.889387e+00 1.058939e+01
      endloop
   endfacet
   facet normal 0.000000e+00 -7.071069e-01 7.071066e-01
      outer loop
         vertex 1.058939e+01 7.889387e+00 1.058939e+01
         vertex 7.030000e+01 1.000000e+01 1.270000e+01
         vertex 1.270000e+01 1.000000e+01 1.270000e+01
      endloop
   endfacet
   facet normal -7.071066e-01 -7.071069e-01 0.000000e+00
      outer loop
         vertex 7.030000e+01 1.000000e+01 1.270000e+01
         vertex 7.241061e+01 7.889387e+00 1.058939e+01
         vertex 7.030000e+01 1.000000e+01 7.030000e+01
      endloop
   endfacet
   facet normal -7.071066e-01 -7.071069e-01 0.000000e+00
      outer loop
         vertex 7.030000e+01 1.000000e+01 7.030000e+01
         vertex 7.241061e+01 7.889387e+00 1.058939e+01
         vertex 7.241061e+01 7.889387e+00 7.241061e+01
      endloop
   endfacet
endsolid planterCover